<svg width="2296" height="1310" viewBox="0 0 2296 1310" fill="none" xmlns="http://www.w3.org/2000/svg">
<g filter="url(#filter0_bd_48_6)">
<path d="M382.993 1220.75C1129.39 1596.35 1954.66 556.917 2245.49 197.751C2536.33 -161.416 1343.99 53.4173 990.993 197.751C637.993 342.084 45.0931 683.751 497.493 895.751C949.893 1107.75 609.66 1200.75 382.993 1220.75Z" fill="url(#paint0_linear_48_6)" fill-opacity="0.5" shape-rendering="crispEdges"/>
<path d="M382.993 1220.75C1129.39 1596.35 1954.66 556.917 2245.49 197.751C2536.33 -161.416 1343.99 53.4173 990.993 197.751C637.993 342.084 45.0931 683.751 497.493 895.751C949.893 1107.75 609.66 1200.75 382.993 1220.75Z" stroke="black" shape-rendering="crispEdges"/>
</g>
<path d="M120.003 584H100.998L31.856 476.667H31.132C31.2527 478.839 31.3733 481.252 31.494 483.907C31.7353 486.562 31.9163 489.458 32.037 492.595C32.1577 495.612 32.2783 498.749 32.399 502.007C32.5197 505.265 32.58 508.523 32.58 511.781V584H17.557V454.766H36.381L105.342 561.737H106.066C105.945 560.289 105.825 558.298 105.704 555.764C105.583 553.109 105.463 550.213 105.342 547.076C105.221 543.818 105.101 540.5 104.98 537.121C104.859 533.742 104.799 530.605 104.799 527.709V454.766H120.003V584ZM237.249 535.311C237.249 543.396 236.163 550.575 233.991 556.85C231.939 563.004 228.923 568.253 224.941 572.597C221.079 576.941 216.313 580.259 210.642 582.552C205.091 584.724 198.877 585.81 191.999 585.81C185.603 585.81 179.691 584.724 174.261 582.552C168.831 580.259 164.125 576.941 160.143 572.597C156.161 568.253 153.023 563.004 150.731 556.85C148.559 550.575 147.473 543.396 147.473 535.311C147.473 524.572 149.283 515.522 152.903 508.161C156.523 500.68 161.711 495.008 168.469 491.147C175.226 487.165 183.25 485.174 192.542 485.174C201.35 485.174 209.073 487.165 215.71 491.147C222.467 495.008 227.716 500.68 231.457 508.161C235.318 515.522 237.249 524.572 237.249 535.311ZM163.944 535.311C163.944 542.913 164.909 549.55 166.84 555.221C168.891 560.772 172.028 565.055 176.252 568.072C180.475 571.089 185.845 572.597 192.361 572.597C198.877 572.597 204.246 571.089 208.47 568.072C212.693 565.055 215.77 560.772 217.701 555.221C219.752 549.55 220.778 542.913 220.778 535.311C220.778 527.588 219.752 521.012 217.701 515.582C215.649 510.152 212.512 505.989 208.289 503.093C204.186 500.076 198.816 498.568 192.18 498.568C182.285 498.568 175.105 501.826 170.641 508.342C166.176 514.858 163.944 523.848 163.944 535.311ZM415.938 485.174C426.919 485.174 435.124 488.01 440.554 493.681C445.984 499.232 448.699 508.282 448.699 520.831V584H432.952V521.555C432.952 513.953 431.323 508.221 428.065 504.36C424.928 500.499 419.98 498.568 413.223 498.568C403.811 498.568 397.054 501.283 392.951 506.713C388.969 512.143 386.978 520.047 386.978 530.424V584H371.231V521.555C371.231 516.487 370.507 512.264 369.059 508.885C367.611 505.386 365.439 502.791 362.543 501.102C359.647 499.413 355.906 498.568 351.321 498.568C344.805 498.568 339.677 499.956 335.936 502.731C332.195 505.386 329.48 509.307 327.791 514.496C326.222 519.685 325.438 526.08 325.438 533.682V584H309.51V486.984H322.361L324.714 500.197H325.619C327.67 496.818 330.144 494.043 333.04 491.871C336.057 489.578 339.375 487.889 342.995 486.803C346.615 485.717 350.356 485.174 354.217 485.174C361.698 485.174 367.913 486.501 372.86 489.156C377.928 491.811 381.608 495.913 383.901 501.464H384.806C388.064 495.913 392.468 491.811 398.019 489.156C403.69 486.501 409.663 485.174 415.938 485.174ZM563.013 535.311C563.013 543.396 561.927 550.575 559.755 556.85C557.704 563.004 554.687 568.253 550.705 572.597C546.844 576.941 542.078 580.259 536.406 582.552C530.856 584.724 524.641 585.81 517.763 585.81C511.368 585.81 505.455 584.724 500.025 582.552C494.595 580.259 489.889 576.941 485.907 572.597C481.925 568.253 478.788 563.004 476.495 556.85C474.323 550.575 473.237 543.396 473.237 535.311C473.237 524.572 475.047 515.522 478.667 508.161C482.287 500.68 487.476 495.008 494.233 491.147C500.991 487.165 509.015 485.174 518.306 485.174C527.115 485.174 534.838 487.165 541.474 491.147C548.232 495.008 553.481 500.68 557.221 508.161C561.083 515.522 563.013 524.572 563.013 535.311ZM489.708 535.311C489.708 542.913 490.674 549.55 492.604 555.221C494.656 560.772 497.793 565.055 502.016 568.072C506.24 571.089 511.609 572.597 518.125 572.597C524.641 572.597 530.011 571.089 534.234 568.072C538.458 565.055 541.535 560.772 543.465 555.221C545.517 549.55 546.542 542.913 546.542 535.311C546.542 527.588 545.517 521.012 543.465 515.582C541.414 510.152 538.277 505.989 534.053 503.093C529.951 500.076 524.581 498.568 517.944 498.568C508.05 498.568 500.87 501.826 496.405 508.342C491.941 514.858 489.708 523.848 489.708 535.311ZM633.507 485.174C635.317 485.174 637.248 485.295 639.299 485.536C641.471 485.657 643.341 485.898 644.91 486.26L642.919 500.921C641.35 500.559 639.601 500.257 637.67 500.016C635.86 499.775 634.11 499.654 632.421 499.654C628.68 499.654 625.121 500.438 621.742 502.007C618.363 503.576 615.347 505.808 612.692 508.704C610.037 511.479 607.926 514.858 606.357 518.84C604.909 522.822 604.185 527.287 604.185 532.234V584H588.257V486.984H601.289L603.099 504.722H603.823C605.874 501.102 608.348 497.844 611.244 494.948C614.14 491.931 617.458 489.578 621.199 487.889C624.94 486.079 629.042 485.174 633.507 485.174ZM696.957 485.174C705.283 485.174 712.403 486.984 718.315 490.604C724.349 494.224 728.934 499.352 732.071 505.989C735.329 512.505 736.958 520.167 736.958 528.976V538.569H670.531C670.773 549.55 673.548 557.936 678.857 563.728C684.287 569.399 691.829 572.235 701.482 572.235C707.636 572.235 713.066 571.692 717.772 570.606C722.599 569.399 727.546 567.71 732.614 565.538V579.475C727.667 581.647 722.78 583.216 717.953 584.181C713.127 585.267 707.395 585.81 700.758 585.81C691.588 585.81 683.443 583.94 676.323 580.199C669.325 576.458 663.834 570.908 659.852 563.547C655.991 556.066 654.06 546.955 654.06 536.216C654.06 525.597 655.81 516.487 659.309 508.885C662.929 501.283 667.937 495.431 674.332 491.328C680.848 487.225 688.39 485.174 696.957 485.174ZM696.776 498.206C689.174 498.206 683.141 500.68 678.676 505.627C674.332 510.454 671.738 517.211 670.893 525.899H720.306C720.306 520.348 719.462 515.522 717.772 511.419C716.083 507.316 713.489 504.119 709.989 501.826C706.611 499.413 702.206 498.206 696.776 498.206Z" fill="white"/>
<path d="M846.141 485.174C854.467 485.174 861.586 486.984 867.499 490.604C873.532 494.224 878.118 499.352 881.255 505.989C884.513 512.505 886.142 520.167 886.142 528.976V538.569H819.715C819.956 549.55 822.732 557.936 828.041 563.728C833.471 569.399 841.013 572.235 850.666 572.235C856.82 572.235 862.25 571.692 866.956 570.606C871.783 569.399 876.73 567.71 881.798 565.538V579.475C876.851 581.647 871.964 583.216 867.137 584.181C862.31 585.267 856.579 585.81 849.942 585.81C840.771 585.81 832.626 583.94 825.507 580.199C818.508 576.458 813.018 570.908 809.036 563.547C805.175 556.066 803.244 546.955 803.244 536.216C803.244 525.597 804.994 516.487 808.493 508.885C812.113 501.283 817.121 495.431 823.516 491.328C830.032 487.225 837.574 485.174 846.141 485.174ZM845.96 498.206C838.358 498.206 832.325 500.68 827.86 505.627C823.516 510.454 820.922 517.211 820.077 525.899H869.49C869.49 520.348 868.645 515.522 866.956 511.419C865.267 507.316 862.672 504.119 859.173 501.826C855.794 499.413 851.39 498.206 845.96 498.206ZM956.09 485.174C957.9 485.174 959.831 485.295 961.882 485.536C964.054 485.657 965.924 485.898 967.493 486.26L965.502 500.921C963.933 500.559 962.184 500.257 960.253 500.016C958.443 499.775 956.693 499.654 955.004 499.654C951.263 499.654 947.704 500.438 944.325 502.007C940.946 503.576 937.93 505.808 935.275 508.704C932.62 511.479 930.509 514.858 928.94 518.84C927.492 522.822 926.768 527.287 926.768 532.234V584H910.84V486.984H923.872L925.682 504.722H926.406C928.457 501.102 930.931 497.844 933.827 494.948C936.723 491.931 940.041 489.578 943.782 487.889C947.523 486.079 951.625 485.174 956.09 485.174ZM1030.86 485.174C1032.67 485.174 1034.6 485.295 1036.65 485.536C1038.82 485.657 1040.69 485.898 1042.26 486.26L1040.27 500.921C1038.7 500.559 1036.95 500.257 1035.02 500.016C1033.21 499.775 1031.46 499.654 1029.77 499.654C1026.03 499.654 1022.47 500.438 1019.09 502.007C1015.71 503.576 1012.7 505.808 1010.04 508.704C1007.39 511.479 1005.28 514.858 1003.71 518.84C1002.26 522.822 1001.54 527.287 1001.54 532.234V584H985.609V486.984H998.641L1000.45 504.722H1001.17C1003.23 501.102 1005.7 497.844 1008.6 494.948C1011.49 491.931 1014.81 489.578 1018.55 487.889C1022.29 486.079 1026.39 485.174 1030.86 485.174ZM1141.19 535.311C1141.19 543.396 1140.1 550.575 1137.93 556.85C1135.88 563.004 1132.86 568.253 1128.88 572.597C1125.02 576.941 1120.25 580.259 1114.58 582.552C1109.03 584.724 1102.82 585.81 1095.94 585.81C1089.54 585.81 1083.63 584.724 1078.2 582.552C1072.77 580.259 1068.06 576.941 1064.08 572.597C1060.1 568.253 1056.96 563.004 1054.67 556.85C1052.5 550.575 1051.41 543.396 1051.41 535.311C1051.41 524.572 1053.22 515.522 1056.84 508.161C1060.46 500.68 1065.65 495.008 1072.41 491.147C1079.17 487.165 1087.19 485.174 1096.48 485.174C1105.29 485.174 1113.01 487.165 1119.65 491.147C1126.41 495.008 1131.66 500.68 1135.4 508.161C1139.26 515.522 1141.19 524.572 1141.19 535.311ZM1067.88 535.311C1067.88 542.913 1068.85 549.55 1070.78 555.221C1072.83 560.772 1075.97 565.055 1080.19 568.072C1084.41 571.089 1089.78 572.597 1096.3 572.597C1102.82 572.597 1108.19 571.089 1112.41 568.072C1116.63 565.055 1119.71 560.772 1121.64 555.221C1123.69 549.55 1124.72 542.913 1124.72 535.311C1124.72 527.588 1123.69 521.012 1121.64 515.582C1119.59 510.152 1116.45 505.989 1112.23 503.093C1108.13 500.076 1102.76 498.568 1096.12 498.568C1086.22 498.568 1079.04 501.826 1074.58 508.342C1070.12 514.858 1067.88 523.848 1067.88 535.311ZM1211.68 485.174C1213.49 485.174 1215.42 485.295 1217.47 485.536C1219.65 485.657 1221.52 485.898 1223.08 486.26L1221.09 500.921C1219.53 500.559 1217.78 500.257 1215.84 500.016C1214.03 499.775 1212.29 499.654 1210.6 499.654C1206.86 499.654 1203.3 500.438 1199.92 502.007C1196.54 503.576 1193.52 505.808 1190.87 508.704C1188.21 511.479 1186.1 514.858 1184.53 518.84C1183.08 522.822 1182.36 527.287 1182.36 532.234V584H1166.43V486.984H1179.46L1181.27 504.722H1182C1184.05 501.102 1186.52 497.844 1189.42 494.948C1192.31 491.931 1195.63 489.578 1199.37 487.889C1203.11 486.079 1207.22 485.174 1211.68 485.174ZM1304.37 557.212C1304.37 563.487 1302.8 568.736 1299.66 572.959C1296.53 577.182 1292.06 580.38 1286.27 582.552C1280.48 584.724 1273.6 585.81 1265.64 585.81C1258.88 585.81 1253.03 585.267 1248.08 584.181C1243.25 583.095 1238.97 581.587 1235.23 579.656V565.176C1239.09 567.107 1243.73 568.917 1249.16 570.606C1254.72 572.175 1260.33 572.959 1266 572.959C1274.08 572.959 1279.93 571.692 1283.55 569.158C1287.17 566.503 1288.98 563.004 1288.98 558.66C1288.98 556.247 1288.32 554.075 1286.99 552.144C1285.67 550.213 1283.25 548.283 1279.75 546.352C1276.37 544.421 1271.49 542.249 1265.09 539.836C1258.82 537.423 1253.45 535.009 1248.98 532.596C1244.52 530.183 1241.08 527.287 1238.67 523.908C1236.25 520.529 1235.05 516.185 1235.05 510.876C1235.05 502.671 1238.36 496.336 1245 491.871C1251.76 487.406 1260.57 485.174 1271.43 485.174C1277.34 485.174 1282.83 485.777 1287.9 486.984C1293.09 488.07 1297.91 489.639 1302.38 491.69L1296.95 504.36C1294.29 503.153 1291.46 502.128 1288.44 501.283C1285.55 500.318 1282.59 499.594 1279.57 499.111C1276.56 498.508 1273.48 498.206 1270.34 498.206C1263.83 498.206 1258.82 499.292 1255.32 501.464C1251.94 503.515 1250.25 506.351 1250.25 509.971C1250.25 512.626 1251.03 514.918 1252.6 516.849C1254.17 518.659 1256.77 520.469 1260.39 522.279C1264.13 523.968 1269.07 526.02 1275.23 528.433C1281.38 530.726 1286.63 533.079 1290.98 535.492C1295.32 537.905 1298.64 540.862 1300.93 544.361C1303.22 547.74 1304.37 552.023 1304.37 557.212Z" fill="url(#paint1_linear_48_6)"/>
<defs>
<filter id="filter0_bd_48_6" x="243.8" y="-89.2" width="2137.15" height="1480.73" filterUnits="userSpaceOnUse" color-interpolation-filters="sRGB">
<feFlood flood-opacity="0" result="BackgroundImageFix"/>
<feGaussianBlur in="BackgroundImageFix" stdDeviation="44.85"/>
<feComposite in2="SourceAlpha" operator="in" result="effect1_backgroundBlur_48_6"/>
<feColorMatrix in="SourceAlpha" type="matrix" values="0 0 0 0 0 0 0 0 0 0 0 0 0 0 0 0 0 0 127 0" result="hardAlpha"/>
<feOffset dy="4"/>
<feGaussianBlur stdDeviation="2"/>
<feComposite in2="hardAlpha" operator="out"/>
<feColorMatrix type="matrix" values="0 0 0 0 0 0 0 0 0 0 0 0 0 0 0 0 0 0 0.25 0"/>
<feBlend mode="normal" in2="effect1_backgroundBlur_48_6" result="effect2_dropShadow_48_6"/>
<feBlend mode="normal" in="SourceGraphic" in2="effect2_dropShadow_48_6" result="shape"/>
</filter>
<linearGradient id="paint0_linear_48_6" x1="1312.38" y1="1" x2="724.993" y2="1335.75" gradientUnits="userSpaceOnUse">
<stop stop-color="#2D077E"/>
<stop offset="1" stop-color="#E00DE4"/>
</linearGradient>
<linearGradient id="paint1_linear_48_6" x1="757" y1="599" x2="1234" y2="431.5" gradientUnits="userSpaceOnUse">
<stop stop-color="#FF0000"/>
<stop offset="1" stop-color="#550000"/>
</linearGradient>
</defs>
</svg>
